{"title":"Without A Paddle2004HD-Dvdrip Dual Audio Hindi-English","uid":6932562,"size":775714114,"categoryP":"video","categoryS":"movies","magnet":"?xt=urn:btih:77d1008f31d63a0c25a09563b7a93cfce4732dbb&amp;dn=Without+A+Paddle2004HD-Dvdrip+Dual+Audio+Hindi-English&amp;tr=udp%3A%2F%2Ftracker.openbittorrent.com%3A80&amp;tr=udp%3A%2F%2Fopen.demonii.com%3A1337&amp;tr=udp%3A%2F%2Ftracker.coppersurfer.tk%3A6969&amp;tr=udp%3A%2F%2Fexodus.desync.com%3A6969","seeders":0,"leechers":1,"uploader":"grtgmblr","files":1,"time":1325706303,"description":"\n\nGeneral\nFormat : Matroska\nFormat version : Version 2\nFile size : 740 MiB\nDuration : 1h 38mn\nOverall bit rate : 1 046 Kbps\nMovie name : Without a Paddle 2004 by !!!greatgambler---!!!\nEncoded date : UTC 2011-12-30 08:58:19\nWriting library : libebml v1.2.3 + libmatroska v1.3.0\n\nVideo\nID : 2\nFormat : MPEG-4 Visual\nFormat profile : Advanced Simple@L5\nFormat settings, BVOP : Yes\nFormat settings, QPel : No\nFormat settings, GMC : No warppoints\nFormat settings, Matrix : Default (H.263)\nCodec ID : DX50\nCodec ID/Hint : DivX 5\nDuration : 1h 38mn\nBit rate : 833 Kbps\nWidth : 700 pixels\nHeight : 292 pixels\nDisplay aspect ratio : 2.40:1\nFrame rate : 23.976 fps\nColor space : YUV\nChroma subsampling : 4:2:0\nBit depth : 8 bits\nScan type : Progressive\nCompression mode : Lossy\nBits/(Pixel*Frame) : 0.170\nStream size : 589 MiB (80%)\nTitle : Without a Paddle [2004] by !!!---greatgambler---!!!\nWriting library : XviD 1.0.3 (UTC 2004-12-20)\nLanguage : English\nDefault : Yes\nForced : No\n\nAudio #1\nID : 1\nFormat : MPEG Audio\nFormat version : Version 2\nFormat profile : Layer 3\nMode : Joint stereo\nMuxing mode : Header stripping\nCodec ID : A_MPEG/L3\nCodec ID/Hint : MP3\nDuration : 1h 36mn\nBit rate mode : Constant\nBit rate : 64.0 Kbps\nChannel(s) : 2 channels\nSampling rate : 24.0 KHz\nCompression mode : Lossy\nDelay relative to video : 3s 0ms\nStream size : 44.0 MiB (6%)\nTitle : Hindi audio by !!!---greatgambler---!!!\nWriting library : LAME3.98r\nEncoding settings : -m j -V 4 -q 2 -lowpass 11 -b 64\nLanguage : Hindi\nDefault : Yes\nForced : No\n\nAudio #2\nID : 3\nFormat : MPEG Audio\nFormat version : Version 1\nFormat profile : Layer 3\nMuxing mode : Header stripping\nCodec ID : A_MPEG/L3\nCodec ID/Hint : MP3\nDuration : 1h 38mn\nBit rate mode : Constant\nBit rate : 128 Kbps\nChannel(s) : 2 channels\nSampling rate : 48.0 KHz\nCompression mode : Lossy\nStream size : 90.5 MiB (12%)\nTitle : English audio by !!!---greatgambler---!!!\nLanguage : English\nDefault : No\nForced : No\n","torrent":{"xt":"urn:btih:77d1008f31d63a0c25a09563b7a93cfce4732dbb","amp;dn":"Without+A+Paddle2004HD-Dvdrip+Dual+Audio+Hindi-English","amp;tr":["udp%3A%2F%2Ftracker.openbittorrent.com%3A80","udp%3A%2F%2Fopen.demonii.com%3A1337","udp%3A%2F%2Ftracker.coppersurfer.tk%3A6969","udp%3A%2F%2Fexodus.desync.com%3A6969"],"infoHash":"77d1008f31d63a0c25a09563b7a93cfce4732dbb","infoHashBuffer":{"type":"Buffer","data":[119,209,0,143,49,214,58,12,37,160,149,99,183,169,60,252,228,115,45,187]},"announce":[],"urlList":[]}}